<svg width="30" height="30" viewBox="0 0 30 30" fill="none" xmlns="http://www.w3.org/2000/svg">
<g id="chart-arrow-up-rectangle">
<path id="combo shape" fill-rule="evenodd" clip-rule="evenodd" d="M4 0C1.79086 0 0 1.79086 0 4V26C0 28.2091 1.79086 30 4 30H26C28.2091 30 30 28.2091 30 26V4C30 1.79086 28.2091 0 26 0H4ZM18.75 9.375C18.1287 9.375 17.625 9.87868 17.625 10.5C17.625 11.1213 18.1287 11.625 18.75 11.625H20.159L16.7058 16.8925C16.5545 17.1232 16.2143 17.1171 16.0714 16.8811L13.2091 12.1525C12.1598 10.419 9.62535 10.4777 8.65736 12.2579L5.01169 18.9626C4.71489 19.5084 4.91678 20.1915 5.46262 20.4883C6.00847 20.7851 6.69157 20.5833 6.98837 20.0374L10.634 13.3327C10.7723 13.0784 11.1344 13.07 11.2843 13.3177L14.1466 18.0462C15.1467 19.6985 17.5286 19.7413 18.5875 18.1261L22.2568 12.529L22.9938 14.0031C23.2717 14.5588 23.9474 14.7841 24.5031 14.5062C25.0589 14.2284 25.2841 13.5526 25.0063 12.9969L23.9209 10.8261C23.4762 9.93676 22.5673 9.375 21.573 9.375H18.75Z" fill="#5271FF"/>
</g>
</svg>
