<svg width="74" height="77" viewBox="0 0 74 77" fill="none" xmlns="http://www.w3.org/2000/svg">
<g id="Frame" clip-path="url(#clip0_69_477)">
<g id="Group">
<g id="Group_2">
<g id="Group_3">
<g id="_x37_57_x2C__grow_x2C__Bars_x2C__graph_x2C__poll_x2C__data_1_">
<g id="Group_4">
<path id="Vector" d="M66.1818 16.0364H54.4727H19.3454H7.63636C5.21817 16.0364 3.30908 17.9455 3.30908 20.3636V59.6909C3.30908 62.1091 5.21817 64.0182 7.63636 64.0182H30.5454H43.4H66.1818C68.6 64.0182 70.5091 62.1091 70.5091 59.6909V20.3636C70.7636 17.9455 68.6 16.0364 66.1818 16.0364Z" fill="#A7C7FC"/>
<path id="Vector_2" d="M65.8 54.4727V20.8727H54.6H19.3454H8.14545V54.4727H65.8Z" fill="white"/>
<path id="Vector_3" d="M45.0545 38.4364V54.4728H38.5636V41.7455V38.4364H45.0545Z" fill="white"/>
<path id="Vector_4" d="M32.2 44.9272V54.4727H25.8364V48.1091V44.9272H32.2Z" fill="white"/>
<path id="Vector_5" d="M51.4182 35.2545V54.4727H45.0546V38.4363V35.2545H51.4182Z" fill="#A7C7FC"/>
<path id="Vector_6" d="M38.5636 41.7455V54.4728H32.2V44.9273V41.7455H38.5636Z" fill="#A7C7FC"/>
<path id="Vector_7" d="M25.7091 48.1091H19.3455V54.4728H25.7091V48.1091Z" fill="#A7C7FC"/>
<path id="Vector_8" d="M69.7454 70.6364C71.1454 70.6364 72.1636 71.7818 72.1636 73.0545C72.1636 74.4545 71.0182 75.4727 69.7454 75.4727C68.3454 75.4727 67.3273 74.3273 67.3273 73.0545C67.3273 71.6545 68.4727 70.6364 69.7454 70.6364Z" fill="white"/>
<path id="Vector_9" d="M4.83636 75.4728C6.59363 75.4728 8.01818 74.0482 8.01818 72.2909C8.01818 70.5337 6.59363 69.1091 4.83636 69.1091C3.07909 69.1091 1.65454 70.5337 1.65454 72.2909C1.65454 74.0482 3.07909 75.4728 4.83636 75.4728Z" fill="white"/>
<path id="Vector_10" d="M12.9818 11.3273C14.7391 11.3273 16.1636 9.90271 16.1636 8.14544C16.1636 6.38817 14.7391 4.96362 12.9818 4.96362C11.2245 4.96362 9.79999 6.38817 9.79999 8.14544C9.79999 9.90271 11.2245 11.3273 12.9818 11.3273Z" fill="white"/>
<path id="Vector_11" d="M61.8545 1.65454C64.0182 1.65454 65.8 3.43636 65.8 5.6C65.8 7.76363 64.0182 9.54545 61.8545 9.54545C59.6909 9.54545 57.9091 7.76363 57.9091 5.6C57.9091 3.43636 59.6909 1.65454 61.8545 1.65454Z" fill="white"/>
<path id="Vector_12" d="M50.4 69.8727C51.0364 70.509 51.2909 71.2727 51.2909 72.1636C51.2909 73.9454 49.8909 75.3454 48.1091 75.3454H25.8364C24.9455 75.3454 24.1818 74.9636 23.5455 74.4545C22.9091 73.9454 22.6545 73.0545 22.6545 72.1636C22.6545 71.2727 23.0364 70.509 23.5455 69.8727C24.1818 69.2363 24.9455 68.9817 25.8364 68.9817C27.1091 68.9817 28.3818 68.4727 29.2727 67.5817C30.1636 66.6908 30.5455 65.4181 30.5455 64.1454H43.4C43.4 65.4181 43.9091 66.6908 44.8 67.5817C45.6909 68.4727 46.8364 68.9817 48.2364 68.9817C49 68.9817 49.8909 69.2363 50.4 69.8727Z" fill="#A7C7FC"/>
<path id="Vector_13" d="M65.2909 58.2909C65.5455 58.5455 65.8 58.9273 65.8 59.4364C65.8 59.8182 65.6727 60.3273 65.2909 60.5819C64.9091 60.8364 64.6545 61.0909 64.1455 61.0909C63.2545 61.0909 62.4909 60.3273 62.4909 59.4364C62.4909 59.0546 62.6182 58.5455 63 58.2909C63.2545 58.0364 63.6364 57.7819 64.1455 57.7819C64.6545 57.7819 65.0364 57.9091 65.2909 58.2909Z" fill="#5271FF"/>
<path id="Vector_14" d="M60.5818 58.2909C60.8364 58.5455 61.0909 58.9273 61.0909 59.4364C61.0909 59.8182 60.9636 60.3273 60.5818 60.5819C60.2 60.8364 59.9455 61.0909 59.4364 61.0909C58.5455 61.0909 57.7818 60.3273 57.7818 59.4364C57.7818 59.0546 57.9091 58.5455 58.2909 58.2909C58.5455 58.0364 58.9273 57.7819 59.4364 57.7819C59.9455 57.7819 60.3273 57.9091 60.5818 58.2909Z" fill="#5271FF"/>
<path id="Vector_15" d="M59.4364 46.5818H56.2545V49.7636H59.4364V46.5818Z" fill="#5271FF"/>
<path id="Vector_16" d="M59.4364 41.7455H56.2545V44.9273H59.4364V41.7455Z" fill="#5271FF"/>
<path id="Vector_17" d="M59.4364 36.9091H56.2545V40.0909H59.4364V36.9091Z" fill="#5271FF"/>
<path id="Vector_18" d="M58.9273 72.6727C59.1818 72.9272 59.4364 73.309 59.4364 73.8181C59.4364 74.1999 59.3091 74.709 58.9273 74.9636C58.5454 75.2181 58.2909 75.4727 57.7818 75.4727C56.8909 75.4727 56.1273 74.709 56.1273 73.8181C56.1273 73.4363 56.2545 72.9272 56.6364 72.6727C56.8909 72.4181 57.2727 72.1636 57.7818 72.1636C58.2909 72.1636 58.6727 72.4181 58.9273 72.6727Z" fill="#5271FF"/>
<path id="Vector_19" d="M55.7455 58.2909C56 58.5455 56.2546 58.9273 56.2546 59.4364C56.2546 59.8182 56.1273 60.3273 55.7455 60.5819C55.3636 60.8364 55.1091 61.0909 54.6 61.0909C53.7091 61.0909 52.9455 60.3273 52.9455 59.4364C52.9455 59.0546 53.0727 58.5455 53.4546 58.2909C53.7091 58.0364 54.0909 57.7819 54.6 57.7819C55.1091 57.7819 55.4909 57.9091 55.7455 58.2909Z" fill="#5271FF"/>
<path id="Vector_20" d="M50.9091 6.87274C51.1636 7.12728 51.4182 7.5091 51.4182 8.01819C51.4182 8.40001 51.2909 8.9091 50.9091 9.16365C50.5273 9.41819 50.2727 9.67274 49.7636 9.67274C48.8727 9.67274 48.1091 8.9091 48.1091 8.01819C48.1091 7.63637 48.2364 7.12728 48.6182 6.87274C48.8727 6.61819 49.2546 6.36365 49.7636 6.36365C50.2727 6.36365 50.6546 6.49092 50.9091 6.87274Z" fill="#5271FF"/>
<path id="Vector_21" d="M34.8727 3.69093C35.1273 3.94547 35.3818 4.32729 35.3818 4.83638C35.3818 5.34547 35.2545 5.72729 34.8727 5.98184C34.4909 6.23638 34.1091 6.36366 33.7273 6.36366C32.8364 6.36366 32.0727 5.60002 32.0727 4.70911C32.0727 4.32729 32.2 3.8182 32.5818 3.56366C32.8364 3.30911 33.2182 3.05457 33.7273 3.05457C34.2364 3.05457 34.6182 3.30911 34.8727 3.69093Z" fill="#5271FF"/>
<path id="Vector_22" d="M23.6727 8.52728C23.9273 8.78182 24.1818 9.16364 24.1818 9.67273C24.1818 10.0546 24.0546 10.5636 23.6727 10.8182C23.2909 11.0727 23.0364 11.3273 22.5273 11.3273C21.6364 11.3273 20.8727 10.5636 20.8727 9.67273C20.8727 9.29092 21 8.78182 21.3818 8.52728C21.7637 8.27273 22.0182 8.01819 22.5273 8.01819C22.9091 8.01819 23.2909 8.27273 23.6727 8.52728Z" fill="#5271FF"/>
<path id="Vector_23" d="M14 69.3636C14.2546 69.6181 14.5091 70 14.5091 70.509C14.5091 70.8909 14.3818 71.3999 14 71.6545C13.6182 71.909 13.3636 72.1636 12.8546 72.1636C11.9636 72.1636 11.2 71.4 11.2 70.509C11.2 70.1272 11.3273 69.6181 11.7091 69.3636C12.0909 69.109 12.3455 68.8545 12.8546 68.8545C13.3636 68.8545 13.7455 69.109 14 69.3636Z" fill="#5271FF"/>
<path id="Vector_24" d="M4.32728 5.2182C4.58183 5.47274 4.83637 5.85456 4.83637 6.36365C4.83637 6.87274 4.7091 7.25456 4.32728 7.50911C4.07274 7.89092 3.69092 8.14547 3.18183 8.14547C2.29092 8.14547 1.52728 7.25456 1.52728 6.36365C1.52728 5.98183 1.65456 5.47274 2.03637 5.2182C2.29092 4.96365 2.67274 4.70911 3.18183 4.70911C3.69092 4.70911 4.07274 4.96365 4.32728 5.2182Z" fill="#5271FF"/>
<path id="Vector_25" d="M19.3455 56.2545C18.4546 56.2545 17.6909 55.4909 17.6909 54.6V48.2363C17.6909 47.3454 18.4546 46.5818 19.3455 46.5818H25.7091C26.6 46.5818 27.3636 47.3454 27.3636 48.2363C27.3636 49.1272 26.6 49.8909 25.7091 49.8909H20.8727V54.7272C20.8727 55.4909 20.1091 56.2545 19.3455 56.2545Z" fill="#5271FF"/>
<path id="Vector_26" d="M25.8364 56.2545C24.9455 56.2545 24.1818 55.4909 24.1818 54.6V44.9272C24.1818 44.0363 24.9455 43.2727 25.8364 43.2727H32.2C33.0909 43.2727 33.8546 44.0363 33.8546 44.9272C33.8546 45.8182 33.0909 46.5818 32.2 46.5818H27.3636V54.7273C27.3636 55.4909 26.6 56.2545 25.8364 56.2545Z" fill="#5271FF"/>
<path id="Vector_27" d="M32.2 56.2546C31.3091 56.2546 30.5455 55.4909 30.5455 54.6V41.7455C30.5455 40.8546 31.3091 40.0909 32.2 40.0909H38.5637C39.4546 40.0909 40.2182 40.8546 40.2182 41.7455C40.2182 42.6364 39.4546 43.4 38.5637 43.4H33.7273V54.7273C33.7273 55.4909 32.9637 56.2546 32.2 56.2546Z" fill="#5271FF"/>
<path id="Vector_28" d="M38.5636 56.2545C37.6727 56.2545 36.9091 55.4908 36.9091 54.5999V38.4363C36.9091 37.5454 37.6727 36.7817 38.5636 36.7817H44.9273C45.8182 36.7817 46.5818 37.5454 46.5818 38.4363C46.5818 39.3272 45.8182 40.0908 44.9273 40.0908H40.0909V54.7272C40.2182 55.4908 39.4545 56.2545 38.5636 56.2545Z" fill="#5271FF"/>
<path id="Vector_29" d="M51.4182 56.2546C50.5273 56.2546 49.7636 55.4909 49.7636 54.6V36.9091H46.5818V54.7273C46.5818 55.6182 45.8182 56.3818 44.9273 56.3818C44.0364 56.3818 43.2727 55.6182 43.2727 54.7273V35.3818C43.2727 34.4909 44.0364 33.7273 44.9273 33.7273H51.2909C52.1818 33.7273 52.9455 34.4909 52.9455 35.3818V54.7273C52.9455 55.4909 52.1818 56.2546 51.4182 56.2546Z" fill="#5271FF"/>
<path id="Vector_30" d="M17.6909 44.9272C17.3091 44.9272 16.8 44.8 16.5455 44.4182C15.9091 43.7818 16.0364 42.7636 16.6727 42.1272L29.5273 30.8C29.9091 30.5454 30.2909 30.4181 30.8 30.4181C31.3091 30.4181 31.6909 30.6727 31.9455 31.0545L34.1091 34.2363L44.0364 24.3091C44.6727 23.6727 45.6909 23.6727 46.3273 24.3091C46.9636 24.9454 46.9636 25.9636 46.3273 26.6L35 37.9272C34.6182 38.3091 34.2364 38.4363 33.7273 38.4363C33.2182 38.4363 32.8364 38.1818 32.5818 37.6727L30.4182 34.3636L18.9636 44.4182C18.4545 44.8 18.0727 44.9272 17.6909 44.9272Z" fill="#5271FF"/>
<path id="Vector_31" d="M45.0545 31.8182C44.1636 31.8182 43.4 31.0545 43.4 30.1636V27.2363H40.4727C39.5818 27.2363 38.8182 26.4727 38.8182 25.5818C38.8182 24.6909 39.5818 23.9272 40.4727 23.9272H44.9273C45.8182 23.9272 46.5818 24.6909 46.5818 25.5818V30.0363C46.5818 31.0545 45.8182 31.8182 45.0545 31.8182Z" fill="#5271FF"/>
<path id="Vector_32" d="M48.2364 76.9999H25.8364C24.5636 76.9999 23.4182 76.4908 22.4 75.5999C21.5091 74.709 21 73.4363 21 72.1636C21 70.8908 21.5091 69.7454 22.4 68.7272C23.2909 67.8363 24.5636 67.3272 25.8364 67.3272C26.7273 67.3272 27.4909 66.9454 28.1273 66.4363C28.7636 65.7999 29.0182 65.0363 29.0182 64.1454C29.0182 63.2545 29.7818 62.4908 30.6727 62.4908C31.5636 62.4908 32.3273 63.2545 32.3273 64.1454C32.3273 65.7999 31.6909 67.4545 30.4182 68.5999C29.2727 69.7454 27.6182 70.509 25.9636 70.509C25.5818 70.509 25.2 70.6363 24.8182 71.0181C24.5636 71.2727 24.3091 71.7818 24.3091 72.1636C24.3091 72.5454 24.4364 72.9272 24.8182 73.309C25.0727 73.5636 25.4545 73.8181 25.9636 73.8181H48.3636C49.2545 73.8181 50.0182 73.0545 50.0182 72.1636C50.0182 71.7818 49.8909 71.3999 49.5091 71.0181C49.2545 70.7636 48.8727 70.509 48.3636 70.509C46.7091 70.509 45.0545 69.8727 43.9091 68.5999C42.7636 67.3272 42 65.7999 42 64.1454C42 63.2545 42.7636 62.4908 43.6545 62.4908C44.5455 62.4908 45.3091 63.2545 45.3091 64.1454C45.3091 65.0363 45.6909 65.7999 46.2 66.4363C46.8364 67.0727 47.6 67.3272 48.4909 67.3272C49.7636 67.3272 50.9091 67.8363 51.9273 68.7272C52.8182 69.6181 53.3273 70.8908 53.3273 72.1636C52.9455 74.8363 50.7818 76.9999 48.2364 76.9999Z" fill="#5271FF"/>
<path id="Vector_33" d="M4.83636 77C2.16364 77 0 74.8364 0 72.1636C0 69.4909 2.16364 67.3273 4.83636 67.3273C7.50909 67.3273 9.67273 69.4909 9.67273 72.1636C9.8 74.8364 7.50909 77 4.83636 77ZM4.83636 70.6364C3.94545 70.6364 3.18182 71.4 3.18182 72.2909C3.18182 73.1818 3.94545 73.9454 4.83636 73.9454C5.72727 73.9454 6.49091 73.1818 6.49091 72.2909C6.49091 71.4 5.72727 70.6364 4.83636 70.6364Z" fill="#5271FF"/>
<path id="Vector_34" d="M69.7454 77C67.5818 77 65.8 75.2182 65.8 73.0546C65.8 70.891 67.5818 69.1091 69.7454 69.1091C71.9091 69.1091 73.6909 70.891 73.6909 73.0546C73.9454 75.2182 72.0363 77 69.7454 77ZM69.7454 72.2909C69.3636 72.2909 68.9818 72.6728 68.9818 73.0546C68.9818 73.4364 69.3636 73.8182 69.7454 73.8182C70.1273 73.8182 70.5091 73.4364 70.5091 73.0546C70.7636 72.5455 70.3818 72.2909 69.7454 72.2909Z" fill="#5271FF"/>
<path id="Vector_35" d="M65.8 56.2545H8.14545C7.25454 56.2545 6.49091 55.4909 6.49091 54.6V20.8727C6.49091 19.9818 7.25454 19.2181 8.14545 19.2181H65.9273C66.8182 19.2181 67.5818 19.9818 67.5818 20.8727V54.7272C67.4545 55.4909 66.6909 56.2545 65.8 56.2545ZM9.8 52.9454H64.2727V22.4H9.8V52.9454Z" fill="#5271FF"/>
<path id="Vector_36" d="M66.1818 65.8H7.63636C4.32727 65.8 1.65454 63.1273 1.65454 59.8182V20.3637C1.65454 17.0546 4.32727 14.3818 7.63636 14.3818H66.1818C69.4909 14.3818 72.1636 17.0546 72.1636 20.3637V59.6909C72.2909 63 69.4909 65.8 66.1818 65.8ZM7.63636 17.6909C6.10909 17.6909 4.83636 18.9637 4.83636 20.4909V59.8182C4.83636 61.3455 6.10909 62.6182 7.63636 62.6182H66.1818C67.7091 62.6182 68.9818 61.3455 68.9818 59.8182V20.3637C68.9818 18.8364 67.7091 17.5637 66.1818 17.5637H7.63636V17.6909Z" fill="#5271FF"/>
<path id="Vector_37" d="M20.8727 28.8909H14.5091C13.6182 28.8909 12.8546 28.1272 12.8546 27.2363C12.8546 26.3454 13.6182 25.5818 14.5091 25.5818H20.8727C21.7636 25.5818 22.5273 26.3454 22.5273 27.2363C22.5273 28.1272 21.7636 28.8909 20.8727 28.8909Z" fill="#5271FF"/>
<path id="Vector_38" d="M20.8727 33.7273H14.5091C13.6182 33.7273 12.8546 32.9637 12.8546 32.0728C12.8546 31.1819 13.6182 30.4182 14.5091 30.4182H20.8727C21.7636 30.4182 22.5273 31.1819 22.5273 32.0728C22.5273 32.9637 21.7636 33.7273 20.8727 33.7273Z" fill="#5271FF"/>
<path id="Vector_39" d="M12.9818 12.8545C10.3091 12.8545 8.14545 10.6909 8.14545 8.01813C8.14545 5.3454 10.3091 3.18176 12.9818 3.18176C15.6545 3.18176 17.8182 5.21813 17.8182 8.01813C17.8182 10.6909 15.5273 12.8545 12.9818 12.8545ZM12.9818 6.36358C12.0909 6.36358 11.3273 7.12722 11.3273 8.1454C11.3273 9.03631 12.0909 9.79994 12.9818 9.79994C13.8727 9.79994 14.6364 9.03631 14.6364 8.1454C14.5091 7.12722 13.7454 6.36358 12.9818 6.36358Z" fill="#5271FF"/>
<path id="Vector_40" d="M61.8545 11.3273C58.8 11.3273 56.2545 8.7818 56.2545 5.72726C56.2545 2.67271 58.8 0.127256 61.8545 0.127256C64.9091 -1.69724e-05 67.4545 2.54544 67.4545 5.59998C67.4545 8.7818 64.9091 11.3273 61.8545 11.3273ZM61.8545 3.1818C60.5818 3.1818 59.4364 4.19998 59.4364 5.59998C59.4364 6.99998 60.4545 8.01816 61.8545 8.01816C63.1273 8.01816 64.2727 6.99998 64.2727 5.59998C64.2727 4.19998 63.1273 3.1818 61.8545 3.1818Z" fill="#5271FF"/>
</g>
</g>
</g>
</g>
</g>
</g>
<defs>
<clipPath id="clip0_69_477">
<rect width="73.8182" height="77" fill="white"/>
</clipPath>
</defs>
</svg>
