<svg width="76" height="77" viewBox="0 0 76 77" fill="none" xmlns="http://www.w3.org/2000/svg">
<g id="Frame" clip-path="url(#clip0_69_368)">
<g id="Group">
<g id="Group_2">
<g id="Group_3">
<g id="_x37_66_x2C__Accounting_x2C__calculator_x2C__mathematics_x2C__accounts_x2C__book_1_">
<g id="Group_4">
<path id="Vector" d="M70.3777 36.0978V73.7538H65.5734H42.7201V75.4418H32.8516V73.7538H9.99832H4.93423V36.0978H70.3777Z" fill="white"/>
<path id="Vector_2" d="M54.3609 31.2462C52.543 31.2462 51.1147 29.8179 50.9848 28H46.0506H43.8432C40.597 28 38 30.597 38 33.8432V67.2142H64.2293V36.1804V31.2462H54.3609Z" fill="white"/>
<path id="Vector_3" d="M31.8128 27.9174H11.5565V36.2276V67.3912H37.656V33.7605C37.656 30.5143 35.059 27.9174 31.8128 27.9174Z" fill="white"/>
<path id="Vector_4" d="M67.0017 1.68799H54.0169C52.199 1.68799 50.6408 3.11632 50.6408 5.06404V27.7875C50.6408 27.7875 50.6408 27.7875 50.6408 27.9173C50.6408 29.7352 52.199 31.1635 54.0169 31.1635H63.8853H67.0017C68.8196 31.1635 70.3777 29.7352 70.3777 27.7875V5.06404C70.3777 3.11632 68.9494 1.68799 67.0017 1.68799Z" fill="white"/>
<path id="Vector_5" d="M65.7032 6.62231H55.8347V11.5565H65.7032V6.62231Z" fill="white"/>
<path id="Vector_6" d="M4.93423 8.1804C6.72706 8.1804 8.18044 6.72702 8.18044 4.93419C8.18044 3.14136 6.72706 1.68799 4.93423 1.68799C3.1414 1.68799 1.68803 3.14136 1.68803 4.93419C1.68803 6.72702 3.1414 8.1804 4.93423 8.1804Z" fill="white"/>
<path id="Vector_7" d="M40.253 4.9342C41.6813 4.9342 42.7201 6.10284 42.7201 7.40132C42.7201 8.82965 41.5514 9.86844 40.253 9.86844C38.9545 9.86844 37.656 8.82965 37.656 7.40132C37.656 6.10284 38.8246 4.9342 40.253 4.9342Z" fill="white"/>
<path id="Vector_8" d="M39.344 18.0489L34.4098 21.2951H13.2445V14.8027H34.4098L39.344 18.0489Z" fill="white"/>
<path id="Vector_9" d="M13.2445 14.8027V21.2951H9.99831C8.18044 21.2951 6.75211 19.8668 6.75211 18.0489C6.75211 17.14 7.14165 16.3609 7.66104 15.7117C8.31028 15.0624 9.08937 14.8027 9.99831 14.8027H13.2445Z" fill="white"/>
<path id="Vector_10" d="M67.1315 24.6711H63.8853V27.9173H67.1315V24.6711Z" fill="#5271FF"/>
<path id="Vector_11" d="M67.1315 19.7369H63.8853V22.9831H67.1315V19.7369Z" fill="#5271FF"/>
<path id="Vector_12" d="M67.1315 14.8027H63.8853V18.0489H67.1315V14.8027Z" fill="#5271FF"/>
<path id="Vector_13" d="M62.3272 24.6711H59.0809V27.9173H62.3272V24.6711Z" fill="#5271FF"/>
<path id="Vector_14" d="M62.3272 19.7369H59.0809V22.9831H62.3272V19.7369Z" fill="#5271FF"/>
<path id="Vector_15" d="M62.3272 14.8027H59.0809V18.0489H62.3272V14.8027Z" fill="#5271FF"/>
<path id="Vector_16" d="M59.0809 54.0168H47.5244V57.2631H59.0809V54.0168Z" fill="#5271FF"/>
<path id="Vector_17" d="M59.0809 44.2782H47.5244V47.5244H59.0809V44.2782Z" fill="#5271FF"/>
<path id="Vector_18" d="M59.0809 39.344H47.5244V42.5902H59.0809V39.344Z" fill="#5271FF"/>
<path id="Vector_19" d="M59.0809 34.4098H47.5244V37.656H59.0809V34.4098Z" fill="#5271FF"/>
<path id="Vector_20" d="M57.2631 24.6711H54.0169V27.9173H57.2631V24.6711Z" fill="#5271FF"/>
<path id="Vector_21" d="M57.2631 19.7369H54.0169V22.9831H57.2631V19.7369Z" fill="#5271FF"/>
<path id="Vector_22" d="M57.2631 14.8027H54.0169V18.0489H57.2631V14.8027Z" fill="#5271FF"/>
<path id="Vector_23" d="M55.8347 49.2125H42.7201V52.4587H55.8347V49.2125Z" fill="#5271FF"/>
<path id="Vector_24" d="M52.4587 59.0809H49.2125V62.3271H52.4587V59.0809Z" fill="#5271FF"/>
<path id="Vector_25" d="M47.5244 59.0809H44.2782V62.3271H47.5244V59.0809Z" fill="#5271FF"/>
<path id="Vector_26" d="M45.9663 44.2782H42.7201V47.5244H45.9663V44.2782Z" fill="#5271FF"/>
<path id="Vector_27" d="M45.9663 39.344H42.7201V42.5902H45.9663V39.344Z" fill="#5271FF"/>
<path id="Vector_28" d="M45.9663 34.4098H42.7201V37.656H45.9663V34.4098Z" fill="#5271FF"/>
<path id="Vector_29" d="M45.4469 20.1264C45.7066 20.3861 45.9663 20.7757 45.9663 21.2951C45.9663 22.204 45.1872 22.9831 44.2782 22.9831C43.8887 22.9831 43.3693 22.8533 43.1096 22.4637C42.8499 22.0742 42.5902 21.8145 42.5902 21.2951C42.5902 20.7757 42.7201 20.3861 43.1096 20.1264C43.3693 19.8668 43.7589 19.6071 44.2782 19.6071C44.7976 19.6071 45.1872 19.8668 45.4469 20.1264Z" fill="#5271FF"/>
<path id="Vector_30" d="M32.8516 54.0168H21.2951V57.2631H32.8516V54.0168Z" fill="#5271FF"/>
<path id="Vector_31" d="M32.8516 49.2125H21.2951V52.4587H32.8516V49.2125Z" fill="#5271FF"/>
<path id="Vector_32" d="M32.8516 44.2782H21.2951V47.5244H32.8516V44.2782Z" fill="#5271FF"/>
<path id="Vector_33" d="M32.8516 39.344H21.2951V42.5902H32.8516V39.344Z" fill="#5271FF"/>
<path id="Vector_34" d="M32.8516 34.4098H21.2951V37.656H32.8516V34.4098Z" fill="#5271FF"/>
<path id="Vector_35" d="M30.6442 5.4536C30.9039 5.71329 31.1636 6.10284 31.1636 6.62223C31.1636 7.53117 30.3845 8.31026 29.4755 8.31026C29.086 8.31026 28.5666 8.18041 28.3069 7.79087C28.0472 7.40132 27.7875 7.14162 27.7875 6.62223C27.7875 6.23269 27.9174 5.71329 28.3069 5.4536C28.5666 5.1939 28.9562 4.9342 29.4755 4.9342C29.9949 4.9342 30.3845 5.06405 30.6442 5.4536Z" fill="#5271FF"/>
<path id="Vector_36" d="M19.7369 54.0168H16.4907V57.2631H19.7369V54.0168Z" fill="#5271FF"/>
<path id="Vector_37" d="M19.7369 49.2125H16.4907V52.4587H19.7369V49.2125Z" fill="#5271FF"/>
<path id="Vector_38" d="M19.7369 44.2782H16.4907V47.5244H19.7369V44.2782Z" fill="#5271FF"/>
<path id="Vector_39" d="M19.7369 39.344H16.4907V42.5902H19.7369V39.344Z" fill="#5271FF"/>
<path id="Vector_40" d="M19.7369 34.4098H16.4907V37.656H19.7369V34.4098Z" fill="#5271FF"/>
<path id="Vector_41" d="M17.5295 2.20738C17.7892 2.46708 18.0489 2.85662 18.0489 3.37602C18.0489 4.28495 17.2698 5.06404 16.3609 5.06404C15.9713 5.06404 15.4519 4.93419 15.1922 4.54465C14.9325 4.28495 14.6729 3.89541 14.6729 3.37602C14.6729 2.85662 14.8027 2.46708 15.1922 2.20738C15.4519 1.94768 15.8415 1.68799 16.3609 1.68799C16.8803 1.68799 17.2698 1.81784 17.5295 2.20738Z" fill="#5271FF"/>
<path id="Vector_42" d="M6.10287 26.7488C6.36256 27.0085 6.62226 27.398 6.62226 27.9174C6.62226 28.8263 5.84317 29.6054 4.93423 29.6054C4.54469 29.6054 4.02529 29.4756 3.7656 29.086C3.5059 28.6965 3.2462 28.4368 3.2462 27.9174C3.2462 27.5279 3.37605 27.0085 3.7656 26.7488C4.02529 26.4891 4.41484 26.2294 4.93423 26.2294C5.45362 26.2294 5.84317 26.4891 6.10287 26.7488Z" fill="#5271FF"/>
<path id="Vector_43" d="M70.3777 75.4418C69.4688 75.4418 68.6897 74.6627 68.6897 73.7538V37.656H63.8853C62.9764 37.656 62.1973 36.8769 62.1973 35.9679C62.1973 35.059 62.9764 34.2799 63.8853 34.2799H70.3777C71.2867 34.2799 72.0658 35.059 72.0658 35.9679V73.6239C72.1956 74.6627 71.2867 75.4418 70.3777 75.4418Z" fill="#5271FF"/>
<path id="Vector_44" d="M42.7201 77H32.8516C31.9427 77 31.1636 76.2209 31.1636 75.312H9.99831C9.08938 75.312 8.31029 74.5329 8.31029 73.6239C8.31029 72.715 9.08938 71.9359 9.99831 71.9359H32.8516C33.7605 71.9359 34.5396 72.715 34.5396 73.6239H41.032C41.032 72.715 41.8111 71.9359 42.7201 71.9359H65.5734C66.4823 71.9359 67.2614 72.715 67.2614 73.6239C67.2614 74.5329 66.4823 75.312 65.5734 75.312H44.2782C44.2782 76.2209 43.4992 77 42.7201 77Z" fill="#5271FF"/>
<path id="Vector_45" d="M4.93423 75.4418C4.02529 75.4418 3.2462 74.6627 3.2462 73.7538V36.0978C3.2462 35.1889 4.02529 34.4098 4.93423 34.4098H11.4266C12.3356 34.4098 13.1147 35.1889 13.1147 36.0978C13.1147 37.0068 12.3356 37.7858 11.4266 37.7858H6.49241V73.7538C6.62226 74.6627 5.84317 75.4418 4.93423 75.4418Z" fill="#5271FF"/>
<path id="Vector_46" d="M37.656 68.8196H11.5565C10.6476 68.8196 9.86847 68.0405 9.86847 67.1316V27.9174C9.86847 27.0085 10.6476 26.2294 11.5565 26.2294H31.8128C35.968 26.2294 39.344 29.6054 39.344 33.7606C39.344 34.6695 38.5649 35.4486 37.656 35.4486C36.7471 35.4486 35.968 34.6695 35.968 33.7606C35.968 31.4233 34.0202 29.4756 31.683 29.4756H13.2445V65.4435H37.656C38.5649 65.4435 39.344 66.2226 39.344 67.1316C39.344 68.0405 38.5649 68.8196 37.656 68.8196Z" fill="#5271FF"/>
<path id="Vector_47" d="M63.8853 68.8196H37.656C36.747 68.8196 35.968 68.0405 35.968 67.1316V33.7606C35.968 29.6054 39.344 26.2294 43.4992 26.2294H50.6408C51.5497 26.2294 52.3288 27.0085 52.3288 27.9174C52.3288 28.8263 51.5497 29.6054 50.6408 29.6054H43.4992C41.1619 29.6054 39.2142 31.5531 39.2142 33.8904V65.5734H62.0674V31.1636C62.0674 30.2547 62.8465 29.4756 63.7555 29.4756C64.6644 29.4756 65.4435 30.2547 65.4435 31.1636V67.1316C65.5734 68.0405 64.7943 68.8196 63.8853 68.8196Z" fill="#5271FF"/>
<path id="Vector_48" d="M73.7538 75.4418H65.4435C64.5346 75.4418 63.7555 74.6628 63.7555 73.7538C63.7555 72.8449 64.5346 72.0658 65.4435 72.0658H73.7538C74.6627 72.0658 75.4418 72.8449 75.4418 73.7538C75.4418 74.6628 74.6627 75.4418 73.7538 75.4418Z" fill="#5271FF"/>
<path id="Vector_49" d="M9.99831 75.4418H1.68803C0.779089 75.4418 0 74.6628 0 73.7538C0 72.8449 0.779089 72.0658 1.68803 72.0658H9.99831C10.9073 72.0658 11.6863 72.8449 11.6863 73.7538C11.5565 74.6628 10.7774 75.4418 9.99831 75.4418Z" fill="#5271FF"/>
<path id="Vector_50" d="M67.0017 32.8516H54.0169C51.4199 32.8516 49.0826 30.6442 49.0826 28.0473V27.9174V5.06412C49.0826 2.3373 51.29 0.129883 54.0169 0.129883H67.0017C69.7285 0.129883 71.9359 2.3373 71.9359 5.06412V27.7876C72.1956 30.5144 69.7285 32.8516 67.0017 32.8516ZM52.4587 27.7876C52.4587 27.9174 52.4587 27.9174 52.4587 27.7876C52.4587 28.6965 53.2378 29.4756 54.1467 29.4756H67.1315C68.0405 29.4756 68.8196 28.6965 68.8196 27.7876V5.06412C68.8196 4.15518 68.0405 3.37609 67.1315 3.37609H54.1467C53.2378 3.37609 52.4587 4.15518 52.4587 5.06412V27.7876Z" fill="#5271FF"/>
<path id="Vector_51" d="M65.5734 13.2446H55.8347C54.9258 13.2446 54.1467 12.4655 54.1467 11.5566V6.49247C54.1467 5.58353 54.9258 4.80444 55.8347 4.80444H65.7032C66.6121 4.80444 67.3912 5.58353 67.3912 6.49247V11.4267C67.1315 12.4655 66.3524 13.2446 65.5734 13.2446ZM57.3929 9.99837H63.8853V8.31035H57.3929V9.99837Z" fill="#5271FF"/>
<path id="Vector_52" d="M34.4098 22.9831H9.99831C7.2715 22.9831 5.06408 20.7757 5.06408 18.0489C5.06408 16.7504 5.58347 15.5817 6.49241 14.543C7.40135 13.634 8.69983 13.1146 9.99831 13.1146H34.6695C34.9292 13.1146 35.3187 13.2445 35.5784 13.3743L40.5126 16.6205C40.9022 16.8802 41.2917 17.3996 41.2917 17.919C41.2917 18.4384 41.032 18.9578 40.5126 19.2175L35.5784 22.4637C35.059 22.8532 34.6695 22.9831 34.4098 22.9831ZM9.99831 16.4907C9.60877 16.4907 9.21922 16.6205 8.82968 17.0101C8.56998 17.2698 8.31028 17.6593 8.31028 18.1787C8.31028 19.0876 9.08937 19.8667 9.99831 19.8667H34.1501L36.4873 18.0489L34.0202 16.3608H9.99831V16.4907Z" fill="#5271FF"/>
<path id="Vector_53" d="M13.2445 22.9831C12.3356 22.9831 11.5565 22.204 11.5565 21.2951V9.86845C11.5565 8.95951 12.3356 8.18042 13.2445 8.18042H19.7369C20.6459 8.18042 21.425 8.95951 21.425 9.86845C21.425 10.7774 20.6459 11.5565 19.7369 11.5565H14.8027V21.4249C14.8027 22.204 14.0236 22.9831 13.2445 22.9831Z" fill="#5271FF"/>
<path id="Vector_54" d="M40.2529 11.5564C38.0455 11.5564 36.2277 9.73858 36.2277 7.53116C36.2277 5.32373 38.0455 3.50586 40.2529 3.50586C42.4604 3.50586 44.2782 5.32373 44.2782 7.53116C44.2782 9.73858 42.4604 11.5564 40.2529 11.5564ZM40.2529 6.62222C39.8634 6.62222 39.4739 7.01176 39.4739 7.40131C39.4739 7.79085 39.8634 8.1804 40.2529 8.1804C40.6425 8.1804 41.032 7.79085 41.032 7.40131C41.032 7.01176 40.6425 6.62222 40.2529 6.62222Z" fill="#5271FF"/>
<path id="Vector_55" d="M4.93423 9.99831C2.20742 9.99831 0 7.66105 0 4.93423C0 2.20742 2.20742 0 4.93423 0C7.66105 0 9.86847 2.20742 9.86847 4.93423C9.86847 7.66105 7.66105 9.99831 4.93423 9.99831ZM4.93423 3.37605C4.0253 3.37605 3.24621 4.15514 3.24621 5.06408C3.24621 5.97302 4.0253 6.75211 4.93423 6.75211C5.84317 6.75211 6.62226 5.97302 6.62226 5.06408C6.62226 4.0253 5.84317 3.37605 4.93423 3.37605Z" fill="#5271FF"/>
</g>
</g>
</g>
</g>
</g>
</g>
<defs>
<clipPath id="clip0_69_368">
<rect width="75.4418" height="77" fill="white"/>
</clipPath>
</defs>
</svg>
