<svg width="74" height="77" viewBox="0 0 74 77" fill="none" xmlns="http://www.w3.org/2000/svg">
<g id="Frame" clip-path="url(#clip0_69_327)">
<g id="Group">
<g id="Group_2">
<g id="_x37_62_x2C__Chart_x2C__computer_x2C__monitor_x2C__pie_x2C__document_1_">
<g id="Group_3">
<path id="Vector" d="M63.2772 4.82837C64.6749 4.82837 65.6914 5.97193 65.6914 7.24256C65.6914 8.64025 64.5479 9.65675 63.2772 9.65675C61.8795 9.65675 60.863 8.51319 60.863 7.24256C60.863 5.97193 61.8795 4.82837 63.2772 4.82837Z" fill="white"/>
<path id="Vector_2" d="M8.13201 8.13207C9.88638 8.13207 11.3086 6.70987 11.3086 4.9555C11.3086 3.20113 9.88638 1.77893 8.13201 1.77893C6.37764 1.77893 4.95544 3.20113 4.95544 4.9555C4.95544 6.70987 6.37764 8.13207 8.13201 8.13207Z" fill="white"/>
<path id="Vector_3" d="M4.82839 75.4752C6.58276 75.4752 8.00496 74.053 8.00496 72.2986C8.00496 70.5443 6.58276 69.1221 4.82839 69.1221C3.07402 69.1221 1.65182 70.5443 1.65182 72.2986C1.65182 74.053 3.07402 75.4752 4.82839 75.4752Z" fill="white"/>
<path id="Vector_4" d="M69.6304 70.6469C71.0281 70.6469 72.0446 71.7904 72.0446 73.061C72.0446 74.4587 70.901 75.4752 69.6304 75.4752C68.2327 75.4752 67.2162 74.3317 67.2162 73.061C67.2162 71.6634 68.3597 70.6469 69.6304 70.6469Z" fill="white"/>
<path id="Vector_5" d="M50.3168 69.8844C50.9521 70.5198 51.2063 71.2821 51.2063 72.1716C51.2063 73.9505 49.8086 75.3481 48.0297 75.3481H25.7937C24.9043 75.3481 24.1419 74.967 23.5066 74.4587C22.8713 73.9505 22.6172 73.061 22.6172 72.1716C22.6172 71.2821 22.9983 70.5198 23.5066 69.8844C24.1419 69.2491 24.9043 68.995 25.7937 68.995C27.0644 68.995 28.335 68.4868 29.2244 67.5973C30.1139 66.7079 30.495 65.4373 30.495 64.1666H43.3284C43.3284 65.4373 43.8366 66.7079 44.7261 67.5973C45.6155 68.4868 46.7591 68.995 48.1568 68.995C48.9191 68.995 49.8086 69.2491 50.3168 69.8844Z" fill="#A7C7FC"/>
<path id="Vector_6" d="M66.0726 16.137H56.1617H54.3828H7.62375C5.20956 16.137 3.30362 18.0429 3.30362 20.4571V59.7195C3.30362 62.1337 5.20956 64.0396 7.62375 64.0396H30.495H43.3284H66.0726C68.4868 64.0396 70.3927 62.1337 70.3927 59.7195V20.4571C70.6469 18.0429 68.4868 16.137 66.0726 16.137Z" fill="white"/>
<path id="Vector_7" d="M58.0677 20.9653H54.637H8.13202V54.637H54.637H58.0677H65.6914V20.9653H58.0677Z" fill="#A7C7FC"/>
<path id="Vector_8" d="M27.3185 1.77893V9.91094H19.1865C22.363 6.60731 24.269 4.82844 27.3185 1.77893Z" fill="white"/>
<path id="Vector_9" d="M48.665 1.77893H27.3185V9.91094H19.1865V16.2641V21.0925V54.7641H54.3828V20.9654V16.137V9.78388V7.49675C54.637 4.32018 51.8416 1.77893 48.665 1.77893Z" fill="white"/>
<path id="Vector_10" d="M39.2624 38.627C39.6436 39.3894 39.7706 40.1518 39.7706 41.1683C39.7706 43.0742 39.0083 44.8531 37.7376 46.1237C36.467 47.3943 34.8152 48.1567 32.9093 48.1567C29.0974 48.1567 25.9208 44.9802 25.9208 41.1683C25.9208 37.3564 28.9703 34.3069 32.9093 34.3069C33.7987 34.3069 34.5611 34.4339 35.3234 34.6881L32.9093 40.9141L39.2624 38.627Z" fill="#A7C7FC"/>
<path id="Vector_11" d="M35.5776 33.2904C37.8647 34.1798 39.5165 35.9587 40.4059 38.1188L39.0083 38.627L32.6551 40.9142L35.0693 34.6881L35.5776 33.2904Z" fill="#A7C7FC"/>
<path id="Vector_12" d="M71.6634 10.2921C71.9175 10.5462 72.1716 10.9274 72.1716 11.4356C72.1716 11.8168 72.0446 12.3251 71.6634 12.5792C71.2822 12.8333 71.0281 12.9604 70.6469 12.9604C69.7574 12.9604 68.9951 12.198 68.9951 11.3086C68.9951 10.9274 69.1221 10.4191 69.5033 10.165C69.8845 9.91086 70.1386 9.65674 70.6469 9.65674C71.1551 9.65674 71.4093 9.91086 71.6634 10.2921Z" fill="#5271FF"/>
<path id="Vector_13" d="M65.1832 58.3217C65.4373 58.5759 65.6915 58.957 65.6915 59.4653C65.6915 59.8465 65.5644 60.3547 65.1832 60.6089C64.802 60.863 64.5479 61.1171 64.0396 61.1171C63.1502 61.1171 62.3878 60.3547 62.3878 59.4653C62.3878 59.0841 62.5149 58.5759 62.8961 58.3217C63.1502 58.0676 63.5314 57.8135 64.0396 57.8135C64.5479 57.8135 64.9291 57.9405 65.1832 58.3217Z" fill="#5271FF"/>
<path id="Vector_14" d="M60.4818 58.3217C60.736 58.5759 60.9901 58.957 60.9901 59.4653C60.9901 59.8465 60.863 60.3547 60.4818 60.6089C60.1006 60.863 59.8465 61.1171 59.3383 61.1171C58.4488 61.1171 57.6865 60.3547 57.6865 59.4653C57.6865 59.0841 57.8135 58.5759 58.1947 58.3217C58.4488 58.0676 58.83 57.8135 59.3383 57.8135C59.8465 57.8135 60.2277 57.9405 60.4818 58.3217Z" fill="#5271FF"/>
<path id="Vector_15" d="M58.83 72.6799C59.0842 72.934 59.3383 73.3152 59.3383 73.8234C59.3383 74.2046 59.2112 74.7129 58.83 74.967C58.4489 75.2211 58.1947 75.4753 57.6865 75.4753C56.797 75.4753 56.0347 74.7129 56.0347 73.8234C56.0347 73.4423 56.1617 72.934 56.5429 72.6799C56.797 72.4258 57.1782 72.1716 57.6865 72.1716C58.1947 72.1716 58.5759 72.4258 58.83 72.6799Z" fill="#5271FF"/>
<path id="Vector_16" d="M55.6535 58.3217C55.9076 58.5759 56.1617 58.957 56.1617 59.4653C56.1617 59.8465 56.0347 60.3547 55.6535 60.6089C55.2723 60.863 55.0182 61.1171 54.5099 61.1171C53.6205 61.1171 52.8581 60.3547 52.8581 59.4653C52.8581 59.0841 52.9852 58.5759 53.3663 58.3217C53.6205 58.0676 54.0017 57.8135 54.5099 57.8135C55.0182 57.8135 55.3993 57.9405 55.6535 58.3217Z" fill="#5271FF"/>
<path id="Vector_17" d="M49.8086 22.4901H38.5V25.6667H49.8086V22.4901Z" fill="#5271FF"/>
<path id="Vector_18" d="M46.5049 17.7888H43.3284V20.9654H46.5049V17.7888Z" fill="#5271FF"/>
<path id="Vector_19" d="M43.4555 27.4456H28.9703V30.6221H43.4555V27.4456Z" fill="#5271FF"/>
<path id="Vector_20" d="M41.8036 17.7888H25.7937V20.9654H41.8036V17.7888Z" fill="#5271FF"/>
<path id="Vector_21" d="M36.8482 22.4901H33.6716V25.6667H36.8482V22.4901Z" fill="#5271FF"/>
<path id="Vector_22" d="M37.1023 12.9604H25.7937V16.137H37.1023V12.9604Z" fill="#5271FF"/>
<path id="Vector_23" d="M15.6287 10.2921C15.8828 10.5462 16.137 10.9274 16.137 11.4356C16.137 11.8168 16.0099 12.3251 15.6287 12.5792C15.2475 12.8333 14.8663 12.9604 14.4852 12.9604C13.5957 12.9604 12.8333 12.198 12.8333 11.3086C12.8333 10.9274 12.9604 10.4191 13.3416 10.165C13.7228 9.91086 13.9769 9.65674 14.4852 9.65674C14.9934 9.65674 15.3746 9.91086 15.6287 10.2921Z" fill="#5271FF"/>
<path id="Vector_24" d="M13.9769 69.3763C14.231 69.6304 14.4851 70.0116 14.4851 70.5199C14.4851 70.901 14.3581 71.4093 13.9769 71.6634C13.5957 71.9175 13.3416 72.1717 12.8333 72.1717C11.9439 72.1717 11.1815 71.4093 11.1815 70.5199C11.1815 70.1387 11.3086 69.6304 11.6898 69.3763C12.071 69.1222 12.3251 68.868 12.8333 68.868C13.3416 68.868 13.7228 69.1222 13.9769 69.3763Z" fill="#5271FF"/>
<path id="Vector_25" d="M48.1568 77H25.7937C24.5231 77 23.3795 76.4918 22.363 75.6024C21.4736 74.7129 20.9653 73.4423 20.9653 72.1717C20.9653 70.901 21.4736 69.7575 22.363 68.741C23.2525 67.8515 24.5231 67.3433 25.7937 67.3433C26.6832 67.3433 27.4455 66.9621 28.0808 66.4538C28.7162 65.8185 28.9703 65.0561 28.9703 64.1667C28.9703 63.2773 29.7327 62.5149 30.6221 62.5149C31.5115 62.5149 32.2739 63.2773 32.2739 64.1667C32.2739 65.8185 31.6386 67.4703 30.368 68.6139C29.2244 69.7575 27.5726 70.5198 25.9208 70.5198C25.5396 70.5198 25.1584 70.6469 24.7772 71.0281C24.5231 71.2822 24.269 71.7905 24.269 72.1717C24.269 72.5528 24.396 72.934 24.7772 73.3152C25.0313 73.5693 25.4125 73.8235 25.9208 73.8235H48.2838C49.1733 73.8235 49.9356 73.0611 49.9356 72.1717C49.9356 71.7905 49.8086 71.4093 49.4274 71.0281C49.1733 70.774 48.7921 70.5198 48.2838 70.5198C46.632 70.5198 44.9802 69.8845 43.8366 68.6139C42.6931 67.3433 41.9307 65.8185 41.9307 64.1667C41.9307 63.2773 42.6931 62.5149 43.5825 62.5149C44.4719 62.5149 45.2343 63.2773 45.2343 64.1667C45.2343 65.0561 45.6155 65.8185 46.1238 66.4538C46.7591 67.0891 47.5214 67.3433 48.4109 67.3433C49.6815 67.3433 50.8251 67.8515 51.8416 68.741C52.731 69.6304 53.2393 70.901 53.2393 72.1717C52.8581 74.84 50.698 77 48.1568 77Z" fill="#5271FF"/>
<path id="Vector_26" d="M4.82838 77C2.16007 77 0 74.84 0 72.1716C0 69.5033 2.16007 67.3433 4.82838 67.3433C7.4967 67.3433 9.65677 69.5033 9.65677 72.1716C9.78383 74.84 7.4967 77 4.82838 77ZM4.82838 70.6469C3.93894 70.6469 3.17657 71.4093 3.17657 72.2987C3.17657 73.1881 3.93894 73.9505 4.82838 73.9505C5.71782 73.9505 6.4802 73.1881 6.4802 72.2987C6.4802 71.4093 5.71782 70.6469 4.82838 70.6469Z" fill="#5271FF"/>
<path id="Vector_27" d="M69.6303 77C67.4703 77 65.6914 75.2211 65.6914 73.061C65.6914 70.9009 67.4703 69.1221 69.6303 69.1221C71.7904 69.1221 73.5693 70.9009 73.5693 73.061C73.8234 75.2211 71.9175 77 69.6303 77ZM69.6303 72.2986C69.2492 72.2986 68.868 72.6798 68.868 73.061C68.868 73.4422 69.2492 73.8234 69.6303 73.8234C70.0115 73.8234 70.3927 73.4422 70.3927 73.061C70.6469 72.5528 70.2657 72.2986 69.6303 72.2986Z" fill="#5271FF"/>
<path id="Vector_28" d="M63.2772 11.4356C61.1171 11.4356 59.3383 9.65675 59.3383 7.49668C59.3383 5.33662 61.1171 3.55774 63.2772 3.55774C65.4373 3.55774 67.2161 5.33662 67.2161 7.49668C67.2161 9.65675 65.4373 11.4356 63.2772 11.4356ZM63.2772 6.48018C62.896 6.48018 62.5148 6.86137 62.5148 7.24256C62.5148 7.62375 62.896 8.00493 63.2772 8.00493C63.6584 8.00493 64.0396 7.62375 64.0396 7.24256C64.0396 6.86137 63.7854 6.48018 63.2772 6.48018Z" fill="#5271FF"/>
<path id="Vector_29" d="M8.132 9.78383C5.46369 9.78383 3.30362 7.62376 3.30362 4.95545C3.30362 2.28713 5.33662 0 8.132 0C10.8003 0 12.9604 2.16007 12.9604 4.82838C12.9604 7.4967 10.8003 9.78383 8.132 9.78383ZM8.132 3.30363C7.1155 3.30363 6.35312 4.06601 6.35312 4.95545C6.35312 5.84488 7.1155 6.60726 8.00494 6.60726C8.89438 6.60726 9.65675 5.84488 9.65675 4.95545C9.78382 4.06601 9.02144 3.30363 8.132 3.30363Z" fill="#5271FF"/>
<path id="Vector_30" d="M19.3135 56.2887H8.13203C7.11553 56.2887 6.35315 55.5263 6.35315 54.6369V20.9653C6.35315 20.0759 7.11553 19.3135 8.00496 19.3135H19.3135C20.203 19.3135 20.9654 20.0759 20.9654 20.9653C20.9654 21.8547 20.203 22.6171 19.3135 22.6171H9.78384V53.1122H19.4406C20.33 53.1122 21.0924 53.8745 21.0924 54.764C20.9654 55.7805 20.0759 56.2887 19.3135 56.2887Z" fill="#5271FF"/>
<path id="Vector_31" d="M65.6914 56.2888H54.3828C53.4934 56.2888 52.731 55.5265 52.731 54.637C52.731 53.7476 53.4934 52.9852 54.3828 52.9852H64.0396V22.4902H54.3828C53.4934 22.4902 52.731 21.7278 52.731 20.8383C52.731 19.9489 53.4934 19.1865 54.3828 19.1865H65.6914C66.5809 19.1865 67.3432 19.9489 67.3432 20.8383V54.637C67.3432 55.5265 66.5809 56.2888 65.6914 56.2888Z" fill="#5271FF"/>
<path id="Vector_32" d="M66.0726 65.8184H7.62377C4.32014 65.8184 1.65182 63.1501 1.65182 59.8465V20.457C1.65182 17.1534 4.32014 14.4851 7.62377 14.4851H19.3135C20.203 14.4851 20.9654 15.2475 20.9654 16.1369C20.9654 17.0263 20.203 17.7887 19.3135 17.7887H7.62377C6.09902 17.7887 4.82839 19.0594 4.82839 20.5841V59.8465C4.82839 61.3712 6.09902 62.6419 7.62377 62.6419H66.0726C67.5974 62.6419 68.868 61.3712 68.868 59.8465V20.457C68.868 18.9323 67.5974 17.6617 66.0726 17.6617H54.3829C53.4934 17.6617 52.731 16.8993 52.731 16.0098C52.731 15.1204 53.4934 14.358 54.3829 14.358H66.0726C69.3763 14.358 72.0446 17.0263 72.0446 20.33V59.5924C72.1716 63.023 69.3763 65.8184 66.0726 65.8184Z" fill="#5271FF"/>
<path id="Vector_33" d="M54.637 56.2888H19.3135C18.4241 56.2888 17.6617 55.5264 17.6617 54.637V9.78383C17.6617 9.40264 17.7888 9.02145 18.17 8.64026L26.302 0.508251C26.5561 0.254125 27.0644 0 27.4455 0H48.7921C52.8581 0 56.1617 3.30363 56.1617 7.36964V54.3828C56.1617 55.5264 55.3993 56.2888 54.637 56.2888ZM20.8383 52.9852H52.8581V7.4967C52.8581 5.20957 50.9521 3.30363 48.665 3.30363H27.9538L20.9653 10.2921V52.9852H20.8383Z" fill="#5271FF"/>
<path id="Vector_34" d="M27.3185 11.4357H19.1865C18.297 11.4357 17.5347 10.6733 17.5347 9.78384C17.5347 8.8944 18.297 8.13203 19.1865 8.13203H25.5396V1.77889C25.5396 0.889451 26.302 0.127075 27.1914 0.127075C28.0809 0.127075 28.8433 0.889451 28.8433 1.77889V9.9109C28.9703 10.6733 28.2079 11.4357 27.3185 11.4357Z" fill="#5271FF"/>
<path id="Vector_35" d="M32.7822 42.566C32.401 42.566 32.0198 42.439 31.6386 42.0578C31.2574 41.6766 31.0033 40.9142 31.2574 40.406L34.1799 32.7822C34.3069 32.401 34.6881 32.0198 35.0693 31.8928C35.4505 31.7657 35.8317 31.7657 36.34 31.8928C39.0083 32.9093 41.0413 35.0694 42.0578 37.6106C42.1848 37.9918 42.1848 38.5 42.0578 38.8812C41.9307 39.2624 41.5495 39.5165 41.1683 39.7707L33.4175 42.566C33.1634 42.566 32.9093 42.566 32.7822 42.566ZM36.467 35.4505L35.4505 38.2459L38.2459 37.2294C37.7376 36.467 37.1023 35.9588 36.467 35.4505Z" fill="#5271FF"/>
<path id="Vector_36" d="M32.6551 49.8086C27.9538 49.8086 24.0149 45.9967 24.0149 41.1683C24.0149 36.467 27.8267 32.5281 32.6551 32.5281C33.6716 32.5281 34.5611 32.6551 35.5776 33.0363C36.467 33.2905 36.8482 34.1799 36.5941 35.0693C36.3399 35.9588 35.4505 36.34 34.5611 36.0858C33.9258 35.8317 33.2904 35.8317 32.6551 35.8317C29.7327 35.8317 27.3185 38.2459 27.3185 41.1683C27.3185 44.0908 29.7327 46.505 32.6551 46.505C34.0528 46.505 35.3234 45.9967 36.3399 44.9802C37.3564 43.9637 37.8647 42.566 37.8647 41.1683C37.8647 40.406 37.7376 39.7707 37.6106 39.3895C37.2294 38.6271 37.6106 37.6106 38.373 37.2294C39.1353 36.8482 40.1518 37.2294 40.533 37.9918C40.9142 38.8812 41.1683 39.8977 41.1683 41.1683C41.1683 43.4555 40.2789 45.6155 38.7541 47.1403C37.1023 48.7921 34.9423 49.8086 32.6551 49.8086Z" fill="#5271FF"/>
</g>
</g>
</g>
</g>
</g>
<defs>
<clipPath id="clip0_69_327">
<rect width="73.6964" height="77" fill="white"/>
</clipPath>
</defs>
</svg>
