<svg width="83" height="77" viewBox="0 0 83 77" fill="none" xmlns="http://www.w3.org/2000/svg">
<g id="Frame">
<g id="Group">
<g id="Group_2">
<g id="_x37_54_x2C__Budget_x2C__coins_x2C__investment_x2C__money_1_">
<g id="Group_3">
<path id="Vector" d="M62.8741 13.9874C62.8741 10.2482 59.8273 7.06299 55.9496 7.06299H19.25H13.9874H10.5252V7.20148C11.3561 7.20148 12.187 7.61695 12.741 8.30939C13.5719 9.14033 13.9874 10.1098 13.9874 11.3562V15.6493V41.9623V68.1367V75.0612H62.8741V13.9874Z" fill="white"/>
<path id="Vector_2" d="M73.2608 41.9623C75.1996 41.9623 76.723 43.4857 76.723 45.4245C76.723 46.3939 76.3076 47.2249 75.7536 47.9173C75.0612 48.6098 74.2302 48.8867 73.2608 48.8867H60.9353C58.9964 48.8867 57.473 47.3634 57.473 45.4245C57.473 44.4551 57.8885 43.6242 58.4424 42.9317C59.1349 42.2393 59.9658 41.9623 60.9353 41.9623H73.2608Z" fill="#A7C7FC"/>
<path id="Vector_3" d="M73.2608 63.0126C75.1996 63.0126 76.723 64.536 76.723 66.4748C76.723 67.4442 76.3076 68.2752 75.7536 68.9676C75.1996 69.6601 74.2302 69.937 73.2608 69.937H62.7356H60.9353C58.9964 69.937 57.473 68.4137 57.473 66.4748C57.473 65.5054 57.8885 64.6744 58.4424 63.982C59.1349 63.2896 59.9658 63.0126 60.9353 63.0126H73.2608Z" fill="#A7C7FC"/>
<path id="Vector_4" d="M73.2608 55.9496C75.1996 55.9496 76.723 57.473 76.723 59.4118C76.723 60.3812 76.3076 61.2122 75.7536 61.9046C75.1996 62.5971 74.2302 62.874 73.2608 62.874H60.9353C58.9964 62.874 57.473 61.3507 57.473 59.4118C57.473 58.4424 57.8885 57.6115 58.4424 56.919C59.1349 56.2266 59.9658 55.9496 60.9353 55.9496H73.2608Z" fill="#A7C7FC"/>
<path id="Vector_5" d="M73.2608 49.0251C75.1996 49.0251 76.723 50.5485 76.723 52.4874C76.723 53.4568 76.3076 54.2877 75.7536 54.9802C75.0612 55.6726 74.2302 55.9496 73.2608 55.9496H60.9353C58.9964 55.9496 57.473 54.4262 57.473 52.4874C57.473 51.518 57.8885 50.687 58.4424 49.9946C59.1349 49.3021 59.9658 49.0251 60.9353 49.0251H73.2608Z" fill="#A7C7FC"/>
<path id="Vector_6" d="M73.2608 35.0377C75.1996 35.0377 76.723 36.5611 76.723 38.4999C76.723 39.4694 76.3076 40.3003 75.7536 40.9928C75.0612 41.6852 74.2302 41.9622 73.2608 41.9622H60.9353C58.9964 41.9622 57.473 40.4388 57.473 38.4999C57.473 37.5305 57.8885 36.6996 58.4424 36.0071C58.9964 35.3147 59.9658 35.0377 60.9353 35.0377H62.7356H73.2608Z" fill="#A7C7FC"/>
<path id="Vector_7" d="M5.26259 69.937C7.17473 69.937 8.72482 68.3869 8.72482 66.4748C8.72482 64.5627 7.17473 63.0126 5.26259 63.0126C3.35045 63.0126 1.80036 64.5627 1.80036 66.4748C1.80036 68.3869 3.35045 69.937 5.26259 69.937Z" fill="white"/>
<path id="Vector_8" d="M75.8921 19.25C78.2631 19.25 80.1853 17.3279 80.1853 14.9569C80.1853 12.5858 78.2631 10.6637 75.8921 10.6637C73.521 10.6637 71.5989 12.5858 71.5989 14.9569C71.5989 17.3279 73.521 19.25 75.8921 19.25Z" fill="white"/>
<path id="Vector_9" d="M13.9874 15.7877V42.1007H5.1241V11.4946C5.1241 9.14027 7.06295 7.20142 9.41726 7.20142C9.69424 7.20142 9.97122 7.20142 10.2482 7.33991C11.0791 7.47839 11.9101 7.89386 12.464 8.58631C13.4335 9.41724 13.8489 10.3867 13.8489 11.6331V15.7877H13.9874Z" fill="white"/>
<path id="Vector_10" d="M76.8615 24.3741C77.8309 24.3741 78.6619 25.2051 78.6619 26.1745C78.6619 27.1439 77.8309 27.9749 76.8615 27.9749C75.8921 27.9749 75.0612 27.1439 75.0612 26.1745C74.9227 25.2051 75.7536 24.3741 76.8615 24.3741Z" fill="#5271FF"/>
<path id="Vector_11" d="M68.1367 3.46228C69.1061 3.46228 69.9371 4.29322 69.9371 5.26264C69.9371 6.23206 69.1061 7.063 68.1367 7.063C67.1673 7.063 66.3363 6.23206 66.3363 5.26264C66.3363 4.29322 67.1673 3.46228 68.1367 3.46228Z" fill="#5271FF"/>
<path id="Vector_12" d="M55.9496 28.1133H40.1619V31.5755H55.9496V28.1133Z" fill="#5271FF"/>
<path id="Vector_13" d="M55.9496 22.7123H40.1619V26.1745H55.9496V22.7123Z" fill="#5271FF"/>
<path id="Vector_14" d="M55.9496 17.5881H40.1619V21.0504H55.9496V17.5881Z" fill="#5271FF"/>
<path id="Vector_15" d="M45.563 66.4749H26.313V69.9371H45.563V66.4749Z" fill="#5271FF"/>
<path id="Vector_16" d="M45.563 61.2123H26.313V64.6745H45.563V61.2123Z" fill="#5271FF"/>
<path id="Vector_17" d="M45.563 55.9496H26.313V59.4118H45.563V55.9496Z" fill="#5271FF"/>
<path id="Vector_18" d="M45.563 50.687H26.313V54.1492H45.563V50.687Z" fill="#5271FF"/>
<path id="Vector_19" d="M45.563 45.563H26.313V49.0252H45.563V45.563Z" fill="#5271FF"/>
<path id="Vector_20" d="M45.563 40.1619H26.313V43.6241H45.563V40.1619Z" fill="#5271FF"/>
<path id="Vector_21" d="M45.563 35.0377H26.313V38.4999H45.563V35.0377Z" fill="#5271FF"/>
<path id="Vector_22" d="M38.3615 28.1133H34.8993V31.5755H38.3615V28.1133Z" fill="#5271FF"/>
<path id="Vector_23" d="M38.3615 22.7123H34.8993V26.1745H38.3615V22.7123Z" fill="#5271FF"/>
<path id="Vector_24" d="M38.3615 17.5881H34.8993V21.0504H38.3615V17.5881Z" fill="#5271FF"/>
<path id="Vector_25" d="M24.3741 66.4749H20.9119V69.9371H24.3741V66.4749Z" fill="#5271FF"/>
<path id="Vector_26" d="M24.3741 61.2123H20.9119V64.6745H24.3741V61.2123Z" fill="#5271FF"/>
<path id="Vector_27" d="M24.3741 55.9496H20.9119V59.4118H24.3741V55.9496Z" fill="#5271FF"/>
<path id="Vector_28" d="M24.3741 50.687H20.9119V54.1492H24.3741V50.687Z" fill="#5271FF"/>
<path id="Vector_29" d="M24.3741 45.563H20.9119V49.0252H24.3741V45.563Z" fill="#5271FF"/>
<path id="Vector_30" d="M24.3741 40.1619H20.9119V43.6241H24.3741V40.1619Z" fill="#5271FF"/>
<path id="Vector_31" d="M24.3741 35.0377H20.9119V38.4999H24.3741V35.0377Z" fill="#5271FF"/>
<path id="Vector_32" d="M20.9119 0C21.8813 0 22.7122 0.830935 22.7122 1.80036C22.7122 2.76978 21.8813 3.60072 20.9119 3.60072C19.9424 3.60072 19.1115 2.76978 19.1115 1.80036C19.1115 0.830935 19.9424 0 20.9119 0Z" fill="#5271FF"/>
<path id="Vector_33" d="M6.92446 50.687C7.89388 50.687 8.72482 51.518 8.72482 52.4874C8.72482 53.4568 7.89388 54.2877 6.92446 54.2877C5.95503 54.2877 5.1241 53.4568 5.1241 52.4874C5.1241 51.518 5.95503 50.687 6.92446 50.687Z" fill="#5271FF"/>
<path id="Vector_34" d="M62.8741 77H13.9874C13.018 77 12.187 76.1691 12.187 75.1996V41.9622C12.187 40.9928 13.018 40.1619 13.9874 40.1619C14.9568 40.1619 15.7878 40.9928 15.7878 41.9622V73.3993H61.2122V69.937C61.2122 68.9676 62.0432 68.1367 63.0126 68.1367C63.982 68.1367 64.813 68.9676 64.813 69.937V75.0611C64.6745 76.0306 63.8435 77 62.8741 77Z" fill="#5271FF"/>
<path id="Vector_35" d="M62.8741 36.6997C61.9047 36.6997 61.0737 35.8687 61.0737 34.8993V13.9875C61.0737 11.2177 58.7194 8.86335 55.9496 8.86335H11.0791C10.9406 8.86335 10.6637 9.00184 10.5252 9.00184C9.55576 9.00184 8.72482 8.17091 8.72482 7.20148V6.92451C8.72482 5.95508 9.55576 5.12415 10.5252 5.12415H55.9496C60.6583 5.12415 64.6745 9.00184 64.6745 13.849V34.7608C64.6745 35.8687 63.8435 36.6997 62.8741 36.6997Z" fill="#5271FF"/>
<path id="Vector_36" d="M13.9874 43.7626H5.1241C4.15468 43.7626 3.32374 42.9317 3.32374 41.9623V11.4946C3.32374 8.17091 6.09353 5.40112 9.41727 5.40112C9.83273 5.40112 10.2482 5.40112 10.6637 5.53961C11.9101 5.6781 13.018 6.23206 13.8489 7.06299C14.9568 8.17091 15.6493 9.69429 15.6493 11.3562V41.9623C15.7878 42.9317 14.9568 43.7626 13.9874 43.7626ZM6.92446 40.1619H12.1871V11.4946C12.1871 10.8022 11.9101 10.1098 11.4946 9.69429C11.2176 9.27882 10.8022 9.14033 10.3867 9.00184C10.2482 9.00184 10.1097 9.00184 9.83273 9.00184C8.44784 9.00184 7.20144 10.1098 7.20144 11.6331V40.1619H6.92446Z" fill="#5271FF"/>
<path id="Vector_37" d="M73.2608 71.5989H60.9353C58.027 71.5989 55.6727 69.2446 55.6727 66.3363C55.6727 64.9514 56.2266 63.705 57.196 62.5971C58.1655 61.6277 59.5504 61.0737 60.9353 61.0737C61.9047 61.0737 62.7356 61.9047 62.7356 62.8741C62.7356 63.8435 61.9047 64.6745 60.9353 64.6745C60.5198 64.6745 60.1043 64.8129 59.6889 65.2284C59.4119 65.5054 59.1349 66.0593 59.1349 66.4748C59.1349 67.4442 59.9658 68.2752 60.9353 68.2752H73.2608C73.6763 68.2752 74.0917 68.1367 74.5072 67.7212C74.7842 67.4442 75.0612 67.0288 75.0612 66.4748C75.0612 65.5054 74.2302 64.6745 73.2608 64.6745C72.2914 64.6745 71.4604 63.8435 71.4604 62.8741C71.4604 61.9047 72.2914 61.0737 73.2608 61.0737C76.1691 61.0737 78.5234 63.4281 78.5234 66.3363C78.5234 67.7212 77.9694 68.9676 77 70.0755C75.8921 71.045 74.6457 71.5989 73.2608 71.5989Z" fill="#5271FF"/>
<path id="Vector_38" d="M73.2608 64.6745H60.9353C58.027 64.6745 55.6727 62.3202 55.6727 59.4119C55.6727 58.027 56.2266 56.7806 57.196 55.6727C58.1655 54.5648 59.5504 54.1493 60.9353 54.1493C61.9047 54.1493 62.7356 54.9802 62.7356 55.9497C62.7356 56.9191 61.9047 57.75 60.9353 57.75C60.5198 57.75 60.1043 57.8885 59.6889 58.304C59.4119 58.5809 59.1349 58.9964 59.1349 59.5504C59.1349 60.5198 59.9658 61.3507 60.9353 61.3507H73.2608C73.6763 61.3507 74.0917 61.2122 74.5072 60.7968C74.7842 60.5198 75.0612 60.1043 75.0612 59.5504C75.0612 58.5809 74.2302 57.75 73.2608 57.75C72.2914 57.75 71.4604 56.9191 71.4604 55.9497C71.4604 54.9802 72.2914 54.1493 73.2608 54.1493C76.1691 54.1493 78.5234 56.5036 78.5234 59.4119C78.5234 60.7968 77.9694 62.0432 77 63.1511C75.8921 64.1205 74.6457 64.6745 73.2608 64.6745Z" fill="#5271FF"/>
<path id="Vector_39" d="M73.2608 57.6115H60.9353C58.027 57.6115 55.6727 55.2572 55.6727 52.3489C55.6727 50.964 56.2266 49.7176 57.196 48.6097C58.1655 47.5018 59.5504 47.0863 60.9353 47.0863C61.9047 47.0863 62.7356 47.9172 62.7356 48.8867C62.7356 49.8561 61.9047 50.687 60.9353 50.687C60.5198 50.687 60.1043 50.8255 59.6889 51.241C59.4119 51.518 59.1349 51.9334 59.1349 52.4874C59.1349 53.4568 59.9658 54.2877 60.9353 54.2877H73.2608C73.6763 54.2877 74.0917 54.1493 74.5072 53.7338C74.7842 53.4568 75.0612 53.0413 75.0612 52.4874C75.0612 51.518 74.2302 50.687 73.2608 50.687C72.2914 50.687 71.4604 49.8561 71.4604 48.8867C71.4604 47.9172 72.2914 47.0863 73.2608 47.0863C76.1691 47.0863 78.5234 49.4406 78.5234 52.3489C78.5234 53.7338 77.9694 54.9802 77 56.0881C76.0306 57.196 74.6457 57.6115 73.2608 57.6115Z" fill="#5271FF"/>
<path id="Vector_40" d="M73.2608 50.687H60.9353C58.027 50.687 55.6727 48.3327 55.6727 45.4245C55.6727 44.0396 56.2266 42.7932 57.196 41.6852C58.1655 40.5773 59.5504 40.1619 60.9353 40.1619C61.9047 40.1619 62.7356 40.9928 62.7356 41.9622C62.7356 42.9316 61.9047 43.7626 60.9353 43.7626C60.5198 43.7626 60.1043 43.9011 59.6889 44.3165C59.4119 44.5935 59.1349 45.009 59.1349 45.5629C59.1349 46.5324 59.9658 47.3633 60.9353 47.3633H73.2608C73.6763 47.3633 74.0917 47.2248 74.5072 46.8093C74.7842 46.5324 75.0612 46.1169 75.0612 45.5629C75.0612 44.5935 74.2302 43.7626 73.2608 43.7626C72.2914 43.7626 71.4604 42.9316 71.4604 41.9622C71.4604 40.9928 72.2914 40.1619 73.2608 40.1619C76.1691 40.1619 78.5234 42.5162 78.5234 45.4245C78.5234 46.8093 77.9694 48.0558 77 49.1637C76.0306 50.2716 74.6457 50.687 73.2608 50.687Z" fill="#5271FF"/>
<path id="Vector_41" d="M73.2608 43.7626H60.9353C58.027 43.7626 55.6727 41.4083 55.6727 38.5C55.6727 37.1151 56.2266 35.8687 57.196 34.7608C58.1655 33.7914 59.5504 33.2374 60.9353 33.2374H73.2608C76.1691 33.2374 78.5234 35.5917 78.5234 38.5C78.5234 39.8849 77.9694 41.1313 77 42.2392C76.0306 43.3471 74.6457 43.7626 73.2608 43.7626ZM61.2122 36.6997C60.7968 36.6997 60.3813 36.8381 59.9658 37.2536C59.6889 37.5306 59.4119 37.9461 59.4119 38.5C59.4119 39.4694 60.2428 40.3004 61.2122 40.3004H73.3993C73.8148 40.3004 74.2302 40.1619 74.6457 39.7464C74.9227 39.4694 75.1996 39.054 75.1996 38.5C75.1996 37.5306 74.3687 36.6997 73.3993 36.6997H61.2122Z" fill="#5271FF"/>
<path id="Vector_42" d="M5.26259 71.5989C2.35432 71.5989 0 69.2446 0 66.3363C0 63.4281 2.35432 61.0737 5.26259 61.0737C8.17086 61.0737 10.5252 63.4281 10.5252 66.3363C10.6637 69.2446 8.03237 71.5989 5.26259 71.5989ZM5.26259 64.6745C4.29317 64.6745 3.46223 65.5054 3.46223 66.4748C3.46223 67.4442 4.29317 68.2752 5.26259 68.2752C6.23201 68.2752 7.06295 67.4442 7.06295 66.4748C6.92446 65.5054 6.09353 64.6745 5.26259 64.6745Z" fill="#5271FF"/>
<path id="Vector_43" d="M75.8921 21.0503C72.5683 21.0503 69.7986 18.2805 69.7986 14.9568C69.7986 11.6331 72.5683 8.86328 75.8921 8.86328C79.2158 8.86328 81.9856 11.6331 81.9856 14.9568C82.1241 18.2805 79.3543 21.0503 75.8921 21.0503ZM75.8921 12.3255C74.5072 12.3255 73.2608 13.4334 73.2608 14.9568C73.2608 16.4802 74.3687 17.5881 75.8921 17.5881C77.277 17.5881 78.5234 16.4802 78.5234 14.9568C78.5234 13.4334 77.4155 12.3255 75.8921 12.3255Z" fill="#5271FF"/>
</g>
</g>
</g>
</g>
</g>
</svg>
