<svg width="82" height="77" viewBox="0 0 82 77" fill="none" xmlns="http://www.w3.org/2000/svg">
<g id="Frame" clip-path="url(#clip0_69_7)">
<g id="Group">
<g id="Group_2">
<g id="Group_3">
<g id="_x37_59_x2C__Bar_x2C__chart_x2C__document_x2C__paper_1_">
<g id="Group_4">
<path id="Vector" d="M59.3603 5.39856C54.3906 5.39856 18.6364 5.39856 14.0808 5.39856V5.54063C16.0135 5.96683 17.532 7.81369 17.532 9.94469C17.532 9.80262 17.532 43.1882 17.3939 75.2952H66.2626V12.5019C66.1246 8.52402 63.0875 5.39856 59.3603 5.39856Z" fill="white"/>
<path id="Vector_2" d="M48.8687 17.9004V34.096H43.6229V19.7473V17.9004H48.8687Z" fill="#A7C7FC"/>
<path id="Vector_3" d="M38.3771 21.452V34.0959H33.1313V23.2989V21.452H38.3771Z" fill="#A7C7FC"/>
<path id="Vector_4" d="M53.9764 16.1956V34.0959H48.8687V17.9004V16.1956H53.9764Z" fill="#A7C7FC"/>
<path id="Vector_5" d="M43.6229 19.7472V34.0959H38.3771V21.452V19.7472H43.6229Z" fill="#A7C7FC"/>
<path id="Vector_6" d="M33.2694 23.299H28.0236V34.096H33.2694V23.299Z" fill="#A7C7FC"/>
<path id="Vector_7" d="M45.4175 71.6015L40.0337 75.1531H17.532H12.2862V68.0498H17.532H40.0337L45.4175 71.6015Z" fill="#A7C7FC"/>
<path id="Vector_8" d="M12.2862 68.0498V75.1531H8.83503C6.90237 75.1531 5.38385 73.5904 5.38385 71.6015C5.38385 70.607 5.79799 69.7546 6.35018 69.0443C7.04042 68.3339 7.8687 68.0498 8.83503 68.0498H12.2862Z" fill="#A7C7FC"/>
<path id="Vector_9" d="M5.2458 53.701C7.17845 53.701 8.69697 55.2638 8.69697 57.2527C8.69697 59.2416 7.17845 60.8044 5.2458 60.8044C3.31314 60.8044 1.79462 59.2416 1.79462 57.2527C1.79462 55.2638 3.31314 53.701 5.2458 53.701Z" fill="white"/>
<path id="Vector_10" d="M75.6498 62.6512C77.1684 62.6512 78.2727 63.9298 78.2727 65.3505C78.2727 66.9132 77.0303 68.0498 75.6498 68.0498C74.1313 68.0498 73.0269 66.7712 73.0269 65.3505C73.0269 63.7878 74.2694 62.6512 75.6498 62.6512Z" fill="white"/>
<path id="Vector_11" d="M76.7542 16.1956C78.6603 16.1956 80.2054 14.6055 80.2054 12.6439C80.2054 10.6824 78.6603 9.09229 76.7542 9.09229C74.8482 9.09229 73.303 10.6824 73.303 12.6439C73.303 14.6055 74.8482 16.1956 76.7542 16.1956Z" fill="white"/>
<path id="Vector_12" d="M17.532 14.3488V41.3414H8.83502V9.94471C8.83502 7.52958 10.7677 5.54065 13.1145 5.54065C13.3906 5.54065 13.6667 5.54065 13.9428 5.68272C14.771 5.82478 15.5993 6.25098 16.1515 6.96131C16.9798 7.81371 17.3939 8.80818 17.3939 10.0868V14.3488H17.532Z" fill="white"/>
<path id="Vector_13" d="M76.7542 25.0037C77.7205 25.0037 78.5488 25.8561 78.5488 26.8505C78.5488 27.845 77.7205 28.6974 76.7542 28.6974C75.7879 28.6974 74.9596 27.845 74.9596 26.8505C74.8216 25.8561 75.6498 25.0037 76.7542 25.0037Z" fill="#5271FF"/>
<path id="Vector_14" d="M71.3704 48.3026C72.3367 48.3026 73.165 49.155 73.165 50.1495C73.165 51.1439 72.3367 51.9963 71.3704 51.9963C70.404 51.9963 69.5757 51.1439 69.5757 50.1495C69.5757 49.155 70.404 48.3026 71.3704 48.3026Z" fill="#5271FF"/>
<path id="Vector_15" d="M69.7138 0C70.6801 0 71.5084 0.852398 71.5084 1.84686C71.5084 2.84133 70.6801 3.69373 69.7138 3.69373C68.7475 3.69373 67.9192 2.84133 67.9192 1.84686C67.9192 0.852398 68.7475 0 69.7138 0Z" fill="#5271FF"/>
<path id="Vector_16" d="M53.9764 51.9963H50.5252V55.548H53.9764V51.9963Z" fill="#5271FF"/>
<path id="Vector_17" d="M52.3199 41.1992H31.4747V44.7509H52.3199V41.1992Z" fill="#5271FF"/>
<path id="Vector_18" d="M48.8687 51.9963H28.0236V55.548H48.8687V51.9963Z" fill="#5271FF"/>
<path id="Vector_19" d="M45.2795 57.2528H22.6397V60.8045H45.2795V57.2528Z" fill="#5271FF"/>
<path id="Vector_20" d="M36.5825 46.5978H22.6397V50.1494H36.5825V46.5978Z" fill="#5271FF"/>
<path id="Vector_21" d="M29.6801 41.1992H26.2289V44.7509H29.6801V41.1992Z" fill="#5271FF"/>
<path id="Vector_22" d="M8.83503 46.5978C9.80136 46.5978 10.6296 47.4502 10.6296 48.4446C10.6296 49.4391 9.80136 50.2915 8.83503 50.2915C7.8687 50.2915 7.04041 49.4391 7.04041 48.4446C6.90237 47.4502 7.73065 46.5978 8.83503 46.5978Z" fill="#5271FF"/>
<path id="Vector_23" d="M3.58923 0C4.55556 0 5.38384 0.852398 5.38384 1.84686C5.38384 2.84133 4.55556 3.69373 3.58923 3.69373C2.6229 3.69373 1.79462 2.84133 1.79462 1.84686C1.79462 0.852398 2.6229 0 3.58923 0Z" fill="#5271FF"/>
<path id="Vector_24" d="M66.1246 76.9999H40.0337C39.0674 76.9999 38.2391 76.1475 38.2391 75.1531C38.2391 74.1586 39.0674 73.3062 40.0337 73.3062H64.33V12.5018C64.468 9.66047 62.1212 7.10327 59.3603 7.10327H14.495C14.3569 7.10327 14.0808 7.24534 13.9428 7.24534C12.9764 7.24534 12.1482 6.39294 12.1482 5.39848V5.25641C12.1482 4.26194 12.9764 3.40955 13.9428 3.40955H59.2222C63.9158 3.40955 67.9192 7.3874 67.9192 12.3597V75.2951C67.9192 76.1475 67.0909 76.9999 66.1246 76.9999Z" fill="#5271FF"/>
<path id="Vector_25" d="M17.532 69.8967C16.5656 69.8967 15.7374 69.0443 15.7374 68.0498V41.1993C15.7374 40.2048 16.5656 39.3524 17.532 39.3524C18.4983 39.3524 19.3266 40.2048 19.3266 41.1993V68.0498C19.1885 69.0443 18.3603 69.8967 17.532 69.8967Z" fill="#5271FF"/>
<path id="Vector_26" d="M17.532 42.9041H8.83502C7.86869 42.9041 7.04041 42.0517 7.04041 41.0572V9.94465C7.04041 6.53505 9.80135 3.69373 13.1145 3.69373C13.5286 3.69373 13.9428 3.69373 14.3569 3.83579C15.4613 4.11993 16.5657 4.68819 17.3939 5.54059C18.4983 6.67712 19.1886 8.23985 19.1886 9.94465V41.1993C19.1886 42.0517 18.3603 42.9041 17.532 42.9041ZM10.6296 39.3524H15.8754V9.94465C15.8754 9.23432 15.5993 8.52398 15.1852 8.09778C14.771 7.67159 14.3569 7.52952 13.9428 7.38745C13.8047 7.38745 13.6667 7.38745 13.3906 7.38745C12.0101 7.38745 10.7677 8.52398 10.7677 10.0867V39.4945H10.6296V39.3524Z" fill="#5271FF"/>
<path id="Vector_27" d="M28.0236 35.8007C27.0572 35.8007 26.2289 34.9483 26.2289 33.9538V23.1568C26.2289 22.1623 27.0572 21.3099 28.0236 21.3099H33.1313C34.0976 21.3099 34.9259 22.1623 34.9259 23.1568C34.9259 24.1513 34.0976 25.0037 33.1313 25.0037H29.6801V34.0959C29.6801 34.9483 28.8518 35.8007 28.0236 35.8007Z" fill="#5271FF"/>
<path id="Vector_28" d="M33.1313 35.8008C32.165 35.8008 31.3367 34.9484 31.3367 33.9539V21.31C31.3367 20.3155 32.165 19.4631 33.1313 19.4631H38.3771C39.3434 19.4631 40.1717 20.3155 40.1717 21.31C40.1717 22.3045 39.3434 23.1569 38.3771 23.1569H34.9259V33.9539C34.9259 34.9484 34.0976 35.8008 33.1313 35.8008Z" fill="#5271FF"/>
<path id="Vector_29" d="M38.3771 35.8007C37.4108 35.8007 36.5825 34.9483 36.5825 33.9539V19.6052C36.5825 18.6107 37.4108 17.7583 38.3771 17.7583H43.6229C44.5892 17.7583 45.4175 18.6107 45.4175 19.6052C45.4175 20.5996 44.5892 21.452 43.6229 21.452H40.0337V34.0959C40.0337 34.9483 39.2054 35.8007 38.3771 35.8007Z" fill="#5271FF"/>
<path id="Vector_30" d="M43.6229 35.8007C42.6566 35.8007 41.8283 34.9483 41.8283 33.9538V17.9003C41.8283 16.9059 42.6566 16.0535 43.6229 16.0535H48.8687C49.835 16.0535 50.6633 16.9059 50.6633 17.9003C50.6633 18.8948 49.835 19.7472 48.8687 19.7472H45.4175V34.0959C45.4175 34.9483 44.5892 35.8007 43.6229 35.8007Z" fill="#5271FF"/>
<path id="Vector_31" d="M53.9764 35.8008C53.0101 35.8008 52.1818 34.9484 52.1818 33.9539V17.9004H50.3872V34.096C50.3872 35.0905 49.5589 35.9428 48.5926 35.9428C47.6263 35.9428 46.798 35.0905 46.798 34.096V16.1956C46.798 15.2012 47.6263 14.3488 48.5926 14.3488H53.9764C54.9427 14.3488 55.771 15.2012 55.771 16.1956V34.096C55.771 34.9484 54.9427 35.8008 53.9764 35.8008Z" fill="#5271FF"/>
<path id="Vector_32" d="M59.3603 35.8008H24.4344C23.468 35.8008 22.6397 34.9484 22.6397 33.9539C22.6397 32.9595 23.468 32.1071 24.4344 32.1071H59.3603C60.3266 32.1071 61.1549 32.9595 61.1549 33.9539C61.0168 34.9484 60.1886 35.8008 59.3603 35.8008Z" fill="#5271FF"/>
<path id="Vector_33" d="M40.0337 77.0001H8.83502C5.93604 77.0001 3.58923 74.5849 3.58923 71.6015C3.58923 70.1809 4.14142 68.9023 5.10775 67.7657C6.07408 66.7713 7.45455 66.203 8.83502 66.203H40.0337C40.3098 66.203 40.7239 66.3451 41 66.4871L46.2458 70.0388C46.6599 70.3229 47.0741 70.8912 47.0741 71.4595C47.0741 72.0277 46.798 72.596 46.2458 72.8801L41 76.5739C40.7239 76.858 40.3098 77.0001 40.0337 77.0001ZM8.83502 69.8967C8.42088 69.8967 8.00674 70.0388 7.5926 70.465C7.17846 70.7491 6.90236 71.3174 6.90236 71.7436C6.90236 72.7381 7.73065 73.5905 8.69698 73.5905H39.4815L42.1044 71.7436L39.4815 69.8967H8.83502Z" fill="#5271FF"/>
<path id="Vector_34" d="M12.2862 77.0001C11.3199 77.0001 10.4916 76.1477 10.4916 75.1532V68.0499C10.4916 67.0554 11.3199 66.203 12.2862 66.203C13.2525 66.203 14.0808 67.0554 14.0808 68.0499V75.1532C14.0808 76.1477 13.2525 77.0001 12.2862 77.0001Z" fill="#5271FF"/>
<path id="Vector_35" d="M5.24579 62.7934C2.3468 62.7934 0 60.3783 0 57.3949C0 54.4115 2.3468 51.9963 5.24579 51.9963C8.14478 51.9963 10.4916 54.4115 10.4916 57.3949C10.6296 60.2362 8.14478 62.7934 5.24579 62.7934ZM5.24579 55.548C4.27946 55.548 3.45118 56.4004 3.45118 57.3949C3.45118 58.3893 4.27946 59.2417 5.24579 59.2417C6.21212 59.2417 7.0404 58.3893 7.0404 57.3949C7.0404 56.4004 6.21212 55.548 5.24579 55.548Z" fill="#5271FF"/>
<path id="Vector_36" d="M75.6498 69.8966C73.303 69.8966 71.3704 67.9077 71.3704 65.4926C71.3704 63.0774 73.303 61.0885 75.6498 61.0885C77.9966 61.0885 79.9293 63.0774 79.9293 65.4926C80.2054 67.7656 78.1347 69.8966 75.6498 69.8966ZM75.6498 64.4981C75.2357 64.4981 74.8215 64.9243 74.8215 65.3505C74.8215 65.7767 75.2357 66.2029 75.6498 66.2029C76.064 66.2029 76.4781 65.7767 76.4781 65.3505C76.7542 64.9243 76.3401 64.4981 75.6498 64.4981Z" fill="#5271FF"/>
<path id="Vector_37" d="M76.7542 17.9003C73.8552 17.9003 71.5084 15.4852 71.5084 12.5018C71.5084 9.5184 73.8552 7.10327 76.7542 7.10327C79.6532 7.10327 82 9.5184 82 12.5018C82 15.4852 79.5152 17.9003 76.7542 17.9003ZM76.7542 10.797C75.7879 10.797 74.9596 11.6494 74.9596 12.6439C74.9596 13.6383 75.7879 14.4907 76.7542 14.4907C77.7205 14.4907 78.5488 13.6383 78.5488 12.6439C78.4108 11.6494 77.5825 10.797 76.7542 10.797Z" fill="#5271FF"/>
</g>
</g>
</g>
</g>
</g>
</g>
<defs>
<clipPath id="clip0_69_7">
<rect width="82" height="77" fill="white"/>
</clipPath>
</defs>
</svg>
