<svg width="16" height="22" viewBox="0 0 16 22" fill="none" xmlns="http://www.w3.org/2000/svg">
<g id="location">
<path id="Combo shape" fill-rule="evenodd" clip-rule="evenodd" d="M15.5 8.47923C15.5 12.398 10.625 17.9585 8 17.9585C5.375 17.9585 0.5 12.01 0.5 8.09119C0.5 3.98906 4.13401 0.995605 8 0.995605C11.866 0.995605 15.5 3.98906 15.5 8.47923ZM10.5 7.98032C10.5 9.35802 9.38071 10.4749 8 10.4749C6.61929 10.4749 5.5 9.35802 5.5 7.98032C5.5 6.60262 6.61929 5.48578 8 5.48578C9.38071 5.48578 10.5 6.60262 10.5 7.98032ZM2 20.2036C1.58579 20.2036 1.25 20.5386 1.25 20.9519C1.25 21.3652 1.58579 21.7003 2 21.7003H14C14.4142 21.7003 14.75 21.3652 14.75 20.9519C14.75 20.5386 14.4142 20.2036 14 20.2036H2Z" fill="white"/>
</g>
</svg>
