<svg width="28" height="30" viewBox="0 0 28 30" fill="none" xmlns="http://www.w3.org/2000/svg">
<g id="notepad">
<path id="Combo shape" fill-rule="evenodd" clip-rule="evenodd" d="M11 0H17C18.6569 0 20 1.34315 20 3C20 4.65685 18.6569 6 17 6H11C9.34315 6 8 4.65685 8 3C8 1.34315 9.34315 0 11 0ZM5.76099 3.04504C5.7537 3.15408 5.75 3.2641 5.75 3.37498C5.75 6.06737 7.93261 8.24998 10.625 8.24998H17.375C20.0674 8.24998 22.25 6.06737 22.25 3.37498C22.25 3.2641 22.2463 3.15409 22.239 3.04505C25.2041 3.40924 27.5 5.93648 27.5 8.99998V24C27.5 27.3137 24.8137 30 21.5 30H6.5C3.18629 30 0.5 27.3137 0.5 24V8.99998C0.5 5.93649 2.79594 3.40923 5.76099 3.04504ZM6.875 12C6.875 11.3787 7.37868 10.875 8 10.875H20C20.6213 10.875 21.125 11.3787 21.125 12C21.125 12.6213 20.6213 13.125 20 13.125H8C7.37868 13.125 6.875 12.6213 6.875 12ZM8 16.875C7.37868 16.875 6.875 17.3787 6.875 18C6.875 18.6213 7.37868 19.125 8 19.125H20C20.6213 19.125 21.125 18.6213 21.125 18C21.125 17.3787 20.6213 16.875 20 16.875H8ZM6.875 24C6.875 23.3787 7.37868 22.875 8 22.875H14C14.6213 22.875 15.125 23.3787 15.125 24C15.125 24.6213 14.6213 25.125 14 25.125H8C7.37868 25.125 6.875 24.6213 6.875 24Z" fill="#5271FF"/>
</g>
</svg>
