<svg width="36" height="36" viewBox="0 0 36 36" fill="none" xmlns="http://www.w3.org/2000/svg">
<g id="Huge-icon/education/solid/teacher 01">
<path id="Combo shape" fill-rule="evenodd" clip-rule="evenodd" d="M10.5 11.2485V6.5C10.5 5.39543 11.3954 4.5 12.5 4.5H31C32.1046 4.5 33 5.39543 33 6.5V22C33 23.1046 32.1046 24 31 24H21.9075C21.3308 24 20.7822 23.751 20.4024 23.317L10.9948 12.5655C10.6758 12.201 10.5 11.733 10.5 11.2485ZM16.5 10.5C16.0858 10.5 15.75 10.8358 15.75 11.25C15.75 11.6642 16.0858 12 16.5 12H27C27.4142 12 27.75 11.6642 27.75 11.25C27.75 10.8358 27.4142 10.5 27 10.5H16.5ZM20.25 17.25C20.25 16.8358 20.5858 16.5 21 16.5H27C27.4142 16.5 27.75 16.8358 27.75 17.25C27.75 17.6642 27.4142 18 27 18H21C20.5858 18 20.25 17.6642 20.25 17.25ZM13.5 19.5C13.5 21.1569 12.1569 22.5 10.5 22.5C8.84315 22.5 7.5 21.1569 7.5 19.5C7.5 17.8431 8.84315 16.5 10.5 16.5C12.1569 16.5 13.5 17.8431 13.5 19.5ZM3 26C3 24.8954 3.89543 24 5 24H6.67157C7.20201 24 7.71071 24.2107 8.08579 24.5858L9.08579 25.5858C9.86683 26.3668 11.1332 26.3668 11.9142 25.5858L12.9142 24.5858C13.2893 24.2107 13.798 24 14.3284 24H16C17.1046 24 18 24.8954 18 26V29.5C18 30.6046 17.1046 31.5 16 31.5H5C3.89543 31.5 3 30.6046 3 29.5V26Z" fill="#5271FF"/>
</g>
</svg>
