<svg width="28" height="28" viewBox="0 0 28 28" fill="none" xmlns="http://www.w3.org/2000/svg">
<g id="user">
<path id="combo shape" fill-rule="evenodd" clip-rule="evenodd" d="M11 12.5C14.3137 12.5 17 9.81371 17 6.5C17 3.18629 14.3137 0.5 11 0.5C7.68629 0.5 5 3.18629 5 6.5C5 9.81371 7.68629 12.5 11 12.5ZM11 27.5C16.799 27.5 21.5 24.8137 21.5 21.5C21.5 18.1863 16.799 15.5 11 15.5C5.20101 15.5 0.5 18.1863 0.5 21.5C0.5 24.8137 5.20101 27.5 11 27.5ZM16.9421 12.2232C18.3712 10.7398 19.25 8.72258 19.25 6.50012C19.25 5.44323 19.0513 4.43275 18.6891 3.50403C21.0866 3.60319 22.9999 5.57822 22.9999 8.00012C22.9999 10.4854 20.9852 12.5001 18.4999 12.5001C17.9523 12.5001 17.4275 12.4023 16.9421 12.2232ZM23.7499 21.4999C23.7499 22.3081 23.5702 23.0892 23.2354 23.8273C25.7951 23.0339 27.4999 21.6164 27.4999 19.9999C27.4999 17.7406 24.1699 15.8702 19.8301 15.5487C22.2461 17.05 23.7499 19.1613 23.7499 21.4999Z" fill="#5271FF"/>
</g>
</svg>
